<?xml version="1.0" encoding="iso-8859-1"?>
<!-- Generator: Adobe Illustrator 19.0.0, SVG Export Plug-In . SVG Version: 6.00 Build 0)  -->
<svg version="1.1" id="Capa_1" xmlns="http://www.w3.org/2000/svg" xmlns:xlink="http://www.w3.org/1999/xlink" x="0px" y="0px"
	 viewBox="0 0 512 512" style="enable-background:new 0 0 512 512;" xml:space="preserve">
<path style="fill:#EEECED;" d="M389.384,94.141c94.307,76.555,132.328,225.28,106.895,303.884
	c-35.205,108.826-141.215,54.418-240.248,54.418S50.988,506.851,15.783,398.024C-9.65,319.421,28.372,170.696,122.679,94.141
	C122.679,94.141,389.384,94.141,389.384,94.141z"/>
<path style="fill:#D4D2D3;" d="M15.785,398.031c7.694,23.778,21.516,46.226,44.468,57.761c0.202,0.101,0.403,0.202,0.606,0.301
	c8.802,4.329,18.284,6.932,27.961,8.376c17.31,2.582,34.919,1.614,52.266-0.061c0.14-0.014,0.278-0.027,0.419-0.041
	c-32.286-4.998-58.134-22.3-72.382-66.343C43.691,319.42,81.713,170.695,176.02,94.14h-53.341
	C56.369,147.968,17.887,237.476,9.723,313.2C6.737,340.893,7.035,370.987,15.785,398.031z"/>
<path style="fill:#3B484A;" d="M389.384,94.141v127.25c0,24.59-19.939,44.529-44.529,44.529H167.208
	c-24.59,0-44.529-19.939-44.529-44.529V94.141c36.261-29.434,80.854-48.199,133.353-48.199S353.122,64.707,389.384,94.141z"/>
<path style="fill:#333E40;" d="M176.02,94.141c29.953-24.314,65.598-41.336,106.676-46.526c-4.284-0.541-8.626-0.955-13.028-1.236
	c-0.145-0.009-0.292-0.016-0.438-0.025c-4.392-0.268-8.797-0.412-13.198-0.412c-24.608,0-47.48,4.123-68.571,11.536
	c-2.812,0.989-5.592,2.035-8.341,3.139c-20.615,8.275-39.444,19.728-56.44,33.525v58.547
	C137.764,130.746,155.566,110.745,176.02,94.141z"/>
<path d="M182.265,357.034v-14.787c0-4.419-3.582-8.001-8.001-8.001s-8.001,3.582-8.001,8.001v14.787
	c0,4.419,3.582,8.001,8.001,8.001S182.265,361.453,182.265,357.034z"/>
<path d="M345.673,357.034v-14.787c0-4.419-3.582-8.001-8.001-8.001c-4.419,0-8.001,3.582-8.001,8.001v14.787
	c0,4.419,3.582,8.001,8.001,8.001C342.09,365.035,345.673,361.453,345.673,357.034z"/>
<path d="M255.967,375.962c11.965,0,23.192-4.993,30.801-13.697c2.908-3.327,2.569-8.382-0.759-11.29s-8.381-2.569-11.29,0.759
	c-4.57,5.228-11.404,8.226-18.753,8.226s-14.182-2.999-18.753-8.226c-2.908-3.327-7.964-3.667-11.29-0.759
	c-3.327,2.908-3.668,7.963-0.759,11.29C232.775,370.97,244.002,375.962,255.967,375.962z"/>
<path d="M394.361,87.825c-40.863-33.168-87.426-49.987-138.394-49.987c-50.967,0-97.529,16.817-138.395,49.988
	c-24.48,19.873-46.183,45.118-64.503,75.036c-2.308,3.769-1.123,8.695,2.645,11.002c3.769,2.309,8.694,1.123,11.002-2.645
	c14.023-22.9,30.09-42.877,47.898-59.577v109.646c0,22.629,14.383,41.962,34.487,49.338c5.768,2.117,11.899,3.193,18.043,3.193
	c0,0,177.645,0,177.647,0c6.016,0,12.295-1.085,18.043-3.193c20.104-7.376,34.487-26.709,34.487-49.338V111.65
	c36.262,34.038,65.335,81.676,82.729,136c17.558,54.839,20.755,110.094,8.553,147.808c-10.974,33.925-29.589,52.828-58.582,59.489
	c-27.122,6.231-60.639,1.559-96.125-3.389c-25.459-3.549-51.785-7.22-77.929-7.22s-52.47,3.67-77.929,7.22
	c-35.486,4.948-69.004,9.621-96.125,3.389c-28.992-6.661-47.607-25.564-58.582-59.489c-16.137-49.872-4.977-128.522,27.77-195.71
	c1.936-3.973,0.286-8.762-3.687-10.698c-3.974-1.935-8.762-0.286-10.698,3.687c-17.143,35.177-28.883,73.502-33.95,110.831
	c-5.024,37.009-3.177,70.489,5.343,96.817c12.705,39.273,35.674,62.221,70.223,70.159c29.996,6.891,64.931,2.022,101.918-3.135
	c24.918-3.475,50.685-7.067,75.72-7.067c25.035,0,50.801,3.592,75.72,7.067c33.255,4.636,68.636,10.78,101.917,3.135
	c34.549-7.937,57.52-30.887,70.223-70.159C530.888,316.754,489.822,165.318,394.361,87.825z M344.79,257.816H167.144
	c-9.441,0-18.058-3.601-24.548-9.501c-7.356-6.687-11.98-16.327-11.98-27.027v-123.4c37.219-29.233,79.371-44.048,125.351-44.048
	s88.131,14.815,125.351,44.048v123.4c0,10.7-4.625,20.341-11.98,27.027C362.849,254.216,354.232,257.816,344.79,257.816z"/>
<g>
</g>
<g>
</g>
<g>
</g>
<g>
</g>
<g>
</g>
<g>
</g>
<g>
</g>
<g>
</g>
<g>
</g>
<g>
</g>
<g>
</g>
<g>
</g>
<g>
</g>
<g>
</g>
<g>
</g>
</svg>
